<svg width="144" height="101" viewBox="0 0 144 101" fill="none" xmlns="http://www.w3.org/2000/svg">
<path fill-rule="evenodd" clip-rule="evenodd" d="M4.32168 31.8266C0.618937 40.963 -0.349872 51.0162 1.53791 60.7155C3.42546 70.4144 8.08483 79.3237 14.9264 86.3162C21.7681 93.3087 30.4851 98.0708 39.9746 100C49.4648 101.929 59.3011 100.939 68.2403 97.1548C77.1793 93.3705 84.8198 86.9615 90.1951 78.7394C90.3385 78.5201 90.4801 78.2998 90.6198 78.0783C90.7185 77.9223 90.8165 77.7651 90.9137 77.6076V100.961H94.6768C104.352 100.961 113.811 98.0283 121.856 92.534C129.901 87.0405 136.171 79.2312 139.874 70.0948C143.577 60.9587 144.545 50.9055 142.658 41.2062C140.77 31.5073 136.111 22.5981 129.269 15.6056C122.427 8.61281 113.71 3.85089 104.221 1.92171C94.7307 -0.00770622 84.8945 0.982473 75.9552 4.76688C67.0163 8.55131 59.3758 14.96 54.0004 23.1823C53.7559 23.5566 53.5164 23.934 53.2818 24.3141L53.2818 0.960877L49.5188 0.960875C39.8431 0.960875 30.3847 3.89338 22.3398 9.38749C14.2948 14.8813 8.02445 22.6903 4.32168 31.8266ZM41.4432 51.3455L45.7557 8.82831C38.8968 9.46824 32.281 11.85 26.5212 15.7832C19.7138 20.432 14.4083 27.0398 11.2752 34.7703C8.14203 42.5012 7.32228 51.0076 8.91952 59.2148C10.5168 67.4216 14.4593 74.9601 20.2483 80.8769C26.0375 86.7937 33.4133 90.823 41.4432 92.4555C49.473 94.088 57.796 93.2501 65.36 90.048C72.6201 86.9744 78.8677 81.8551 83.3801 75.2965C79.9603 76.9558 76.135 77.884 72.0978 77.884C57.5497 77.884 41.4432 66.2144 41.4432 51.3455ZM98.4398 93.0933L104.221 51.3455C104.221 36.4764 86.6459 24.0378 72.0978 24.0378C68.0605 24.0378 64.2353 24.966 60.8154 26.6252C65.3278 20.0665 71.5755 14.9471 78.8356 11.8737C86.3996 8.67149 94.7225 7.83367 102.752 9.46613C110.782 11.0986 118.158 15.1281 123.947 21.0447C129.736 26.9616 133.679 34.5001 135.276 42.7069C136.873 50.9141 136.053 59.4205 132.92 67.1512C129.788 74.8819 124.482 81.4898 117.674 86.1383C111.915 90.0715 105.299 92.4533 98.4398 93.0933ZM71.7213 70.188C61.6284 69.9855 53.4838 61.6608 53.2858 51.3455H60.4043C66.0199 52.6537 70.4408 57.1716 71.7213 62.9112V70.188ZM72.4739 70.188C82.5668 69.9855 90.7117 61.6608 90.9098 51.3455H83.7912C78.1749 52.6537 73.7541 57.1723 72.4739 62.9126V70.188ZM90.9098 50.5762C90.7117 40.2608 82.5668 31.9362 72.4739 31.7338V39.0091C73.7541 44.7491 78.1746 49.2676 83.7902 50.5762H90.9098ZM71.7213 31.7338C61.6287 31.9362 53.4838 40.2608 53.2858 50.5762H60.4054C66.0206 49.2676 70.4411 44.7498 71.7213 39.0105V31.7338Z" fill="#1E40AF"/>
</svg>
